<svg xmlns="http://www.w3.org/2000/svg" viewBox="0 0 32 32" width="32" height="32">
  <defs>
    <linearGradient id="terminalGradient" x1="0%" y1="0%" x2="100%" y2="100%">
      <stop offset="0%" style="stop-color:#667eea;stop-opacity:1" />
      <stop offset="100%" style="stop-color:#764ba2;stop-opacity:1" />
    </linearGradient>
  </defs>
  
  <!-- Terminal window background -->
  <rect x="2" y="4" width="28" height="22" rx="3" ry="3" fill="url(#terminalGradient)" />
  
  <!-- Terminal header -->
  <rect x="2" y="4" width="28" height="6" rx="3" ry="3" fill="#2d2d2d" />
  <rect x="2" y="7" width="28" height="3" fill="#2d2d2d" />
  
  <!-- Terminal controls -->
  <circle cx="6" cy="7" r="1.5" fill="#ff5f56" />
  <circle cx="10" cy="7" r="1.5" fill="#ffbd2e" />
  <circle cx="14" cy="7" r="1.5" fill="#27ca3f" />
  
  <!-- Terminal content -->
  <rect x="4" y="12" width="4" height="1.5" fill="#00ff00" opacity="0.8" />
  <rect x="4" y="15" width="8" height="1.5" fill="#00ff00" opacity="0.8" />
  <rect x="4" y="18" width="6" height="1.5" fill="#00ff00" opacity="0.8" />
  <rect x="4" y="21" width="10" height="1.5" fill="#00ff00" opacity="0.8" />
  
  <!-- Cursor -->
  <rect x="15" y="21" width="1" height="1.5" fill="#00ff00">
    <animate attributeName="opacity" values="1;0;1" dur="1s" repeatCount="indefinite" />
  </rect>
  
  <!-- Code blocks overlay -->
  <rect x="18" y="12" width="3" height="3" rx="1" fill="#007bff" opacity="0.7" />
  <rect x="22" y="12" width="3" height="3" rx="1" fill="#28a745" opacity="0.7" />
  <rect x="26" y="12" width="3" height="3" rx="1" fill="#ffc107" opacity="0.7" />
  
  <rect x="18" y="16" width="6" height="3" rx="1" fill="#dc3545" opacity="0.7" />
  <rect x="25" y="16" width="4" height="3" rx="1" fill="#6f42c1" opacity="0.7" />
  
  <rect x="18" y="20" width="4" height="4" rx="1" fill="#fd7e14" opacity="0.7" />
  <rect x="23" y="20" width="6" height="4" rx="1" fill="#20c997" opacity="0.7" />
</svg> 